<svg xmlns="http://www.w3.org/2000/svg" width="256" height="256" fill="none" viewBox="0 0 256 256"><mask id="mask0_5872:56045" width="212" height="188" x="22" y="41" maskUnits="userSpaceOnUse" style="mask-type:alpha"><path fill="#fff" d="M126.88 228.52C106.574 228.52 22.6465 126.706 22.6465 111.869C22.6465 97.0328 39.6992 59.7007 55.751 49.5481C71.8027 39.3954 175.765 39.3954 200.719 49.5481C225.672 59.7007 233.863 97.0276 233.329 111.869C232.794 126.711 147.187 228.52 126.88 228.52Z"/></mask><g mask="url(#mask0_5872:56045)"><path fill="url(#paint0_linear_5872:56045)" d="M126.88 228.52C106.574 228.52 22.6465 126.706 22.6465 111.869C22.6465 97.0328 39.6992 59.7007 55.751 49.5481C71.8027 39.3954 175.765 39.3954 200.719 49.5481C225.672 59.7007 233.863 97.0276 233.329 111.869C232.794 126.711 147.187 228.52 126.88 228.52Z"/><path fill="url(#paint1_linear_5872:56045)" fill-rule="evenodd" d="M88.5605 133.072L127.048 234.41L167.454 132.453L125.03 135.375L88.5605 133.072Z" clip-rule="evenodd"/><path fill="url(#paint2_linear_5872:56045)" fill-rule="evenodd" d="M201.3 48.3027L235.813 61.2883L233.572 112.783L167.453 132.453L128.242 59.0494L201.3 48.3027Z" clip-rule="evenodd"/><path fill="url(#paint3_linear_5872:56045)" fill-rule="evenodd" d="M166.843 131.058L126.053 233.685C149.242 224.814 171.178 208.307 191.861 184.163C212.544 160.02 228.624 134.445 240.099 107.439C226.701 113.958 214.047 119.058 202.139 122.742C190.231 126.425 178.466 129.198 166.843 131.058Z" clip-rule="evenodd"/><path fill="url(#paint4_linear_5872:56045)" fill-rule="evenodd" d="M127.119 57.6426L89.4238 132.86C101.343 134.464 113.883 135.266 127.047 135.266C140.21 135.266 153.4 134.057 166.618 131.64L127.119 57.6426Z" clip-rule="evenodd"/><path stroke="url(#paint5_linear_5872:56045)" stroke-linecap="round" stroke-linejoin="round" stroke-width="2.377" d="M16.8145 108.471C48.5344 127.009 85.2783 135.928 127.046 135.228C168.814 134.527 206.421 125.608 239.868 108.471"/><path fill-rule="evenodd" stroke="url(#paint6_radial_5872:56045)" stroke-linecap="round" stroke-linejoin="round" stroke-width="2.377" d="M55.75 49.5488L127.046 234.409L200.718 49.5488C175.372 55.2085 150.814 58.0383 127.046 58.0383C103.277 58.0383 79.5117 55.2085 55.75 49.5488Z" clip-rule="evenodd"/><path fill="url(#paint7_linear_5872:56045)" fill-rule="evenodd" d="M88.7597 131.725C78.9001 130.652 67.6342 128.046 54.962 123.908C42.2897 119.769 29.6364 114.391 17.002 107.773C30.4462 135.239 45.5643 158.7 62.3562 178.159C79.1482 197.617 100.991 216.126 127.885 233.686L88.7597 131.725Z" clip-rule="evenodd"/><path fill="url(#paint8_linear_5872:56045)" fill-rule="evenodd" d="M127.884 41.9351C93.1283 41.6363 53.9084 43.0342 53.6768 47.4685C53.4472 51.9029 91.7865 58.8537 126.901 59.1556C162.015 59.4574 202.845 52.3488 203.049 48.4425C203.251 44.5361 162.641 42.2338 127.884 41.9351Z" clip-rule="evenodd"/></g><defs><linearGradient id="paint0_linear_5872:56045" x1="56.535" x2="168.216" y1="69.05" y2="183.262" gradientUnits="userSpaceOnUse"><stop stop-color="#64C5FB"/><stop offset="1" stop-color="#0040F2"/></linearGradient><linearGradient id="paint1_linear_5872:56045" x1="112.315" x2="143.595" y1="149.949" y2="162.216" gradientUnits="userSpaceOnUse"><stop stop-color="#1E9CFF" stop-opacity=".427"/><stop offset="1" stop-color="#023DE0"/></linearGradient><linearGradient id="paint2_linear_5872:56045" x1="159.705" x2="205.51" y1="78.336" y2="94.81" gradientUnits="userSpaceOnUse"><stop stop-color="#1E9CFF" stop-opacity=".427"/><stop offset="1" stop-color="#023DE0"/></linearGradient><linearGradient id="paint3_linear_5872:56045" x1="124.183" x2="195.889" y1="122.264" y2="158.935" gradientUnits="userSpaceOnUse"><stop stop-color="#0432D1" stop-opacity="0"/><stop offset="1" stop-opacity=".329"/></linearGradient><linearGradient id="paint4_linear_5872:56045" x1="128.021" x2="128.021" y1="129.351" y2="57.643" gradientUnits="userSpaceOnUse"><stop stop-color="#CBE9FD" stop-opacity=".545"/><stop offset="1" stop-color="#9CCFFB" stop-opacity=".098"/></linearGradient><linearGradient id="paint5_linear_5872:56045" x1="23.361" x2="232.227" y1="112.335" y2="112.335" gradientUnits="userSpaceOnUse"><stop stop-color="#ABD9FD"/><stop offset=".509" stop-color="#9CCFFB"/><stop offset="1" stop-color="#0545EB"/></linearGradient><radialGradient id="paint6_radial_5872:56045" cx="0" cy="0" r="1" gradientTransform="translate(-22.5278 136.914) rotate(90) scale(104.994 99.3591)" gradientUnits="userSpaceOnUse"><stop stop-color="#9CCFFB"/><stop offset="1" stop-color="#9DD0FB" stop-opacity=".154"/></radialGradient><linearGradient id="paint7_linear_5872:56045" x1="86.656" x2="52.403" y1="125.56" y2="197.817" gradientUnits="userSpaceOnUse"><stop stop-color="#CBE9FD"/><stop offset="1" stop-color="#9CCFFB" stop-opacity=".098"/></linearGradient><linearGradient id="paint8_linear_5872:56045" x1="128.363" x2="128.363" y1="59.165" y2="17.482" gradientUnits="userSpaceOnUse"><stop stop-color="#CBE9FD" stop-opacity=".462"/><stop offset="1" stop-color="#156CF0" stop-opacity="0"/></linearGradient></defs></svg>